<?xml version="1.0" encoding="UTF-8"?>
<!DOCTYPE svg PUBLIC "-//W3C//DTD SVG 1.1//EN" "http://www.w3.org/Graphics/SVG/1.1/DTD/svg11.dtd">
<svg version="1.1" width="900" height="800" xmlns="http://www.w3.org/2000/svg">
  <polygon style="fill: #5f5faf; stroke: black; stroke-width: 3px;" points="100.0,190.0 177.94228634059948,145.0 177.94228634059948,55.00000000000002 100.00000000000001,10.0 22.057713659400548,54.99999999999996 22.05771365940049,144.99999999999994"></polygon>
  <polygon style="fill: #d7d7d7; stroke: black; stroke-width: 3px;" points="177.94228634059948,325.0 255.88457268119896,280.0 255.88457268119896,190.00000000000003 177.94228634059948,145.0 100.00000000000003,189.99999999999994 99.99999999999997,279.99999999999994"></polygon>
  <polygon style="fill: #d7afff; stroke: black; stroke-width: 3px;" points="100.0,460.0 177.94228634059948,415.0 177.94228634059948,325.0 100.00000000000001,280.0 22.057713659400548,324.99999999999994 22.05771365940049,414.99999999999994"></polygon>
  <polygon style="fill: #afd75f; stroke: black; stroke-width: 3px;" points="177.94228634059948,595.0 255.88457268119896,550.0 255.88457268119896,460.0 177.94228634059948,415.0 100.00000000000003,459.99999999999994 99.99999999999997,549.9999999999999"></polygon>
  <polygon style="fill: #878787; stroke: black; stroke-width: 3px;" points="255.88457268119896,190.0 333.82685902179844,145.0 333.82685902179844,55.00000000000002 255.88457268119896,10.0 177.9422863405995,54.99999999999996 177.94228634059945,144.99999999999994"></polygon>
  <polygon style="fill: #af875f; stroke: black; stroke-width: 3px;" points="333.82685902179844,325.0 411.7691453623979,280.0 411.7691453623979,190.00000000000003 333.82685902179844,145.0 255.884572681199,189.99999999999994 255.88457268119893,279.99999999999994"></polygon>
  <polygon style="fill: #0087d7; stroke: black; stroke-width: 3px;" points="255.88457268119896,460.0 333.82685902179844,415.0 333.82685902179844,325.0 255.88457268119896,280.0 177.9422863405995,324.99999999999994 177.94228634059945,414.99999999999994"></polygon>
  <polygon style="fill: #ff875f; stroke: black; stroke-width: 3px;" points="333.82685902179844,595.0 411.7691453623979,550.0 411.7691453623979,460.0 333.82685902179844,415.0 255.884572681199,459.99999999999994 255.88457268119893,549.9999999999999"></polygon>
  <polygon style="fill: #00d7af; stroke: black; stroke-width: 3px;" points="411.7691453623979,190.0 489.7114317029974,145.0 489.7114317029974,55.00000000000002 411.7691453623979,10.0 333.82685902179844,54.99999999999996 333.82685902179844,144.99999999999994"></polygon>
  <polygon style="fill: #afffaf; stroke: black; stroke-width: 3px;" points="489.7114317029974,325.0 567.6537180435969,280.0 567.6537180435969,190.00000000000003 489.7114317029974,145.0 411.7691453623979,189.99999999999994 411.7691453623979,279.99999999999994"></polygon>
  <polygon style="fill: #d7afff; stroke: black; stroke-width: 3px;" points="411.7691453623979,460.0 489.7114317029974,415.0 489.7114317029974,325.0 411.7691453623979,280.0 333.82685902179844,324.99999999999994 333.82685902179844,414.99999999999994"></polygon>
  <polygon style="fill: #a8a8a8; stroke: black; stroke-width: 3px;" points="489.7114317029974,595.0 567.6537180435969,550.0 567.6537180435969,460.0 489.7114317029974,415.0 411.7691453623979,459.99999999999994 411.7691453623979,549.9999999999999"></polygon>
  <polygon style="fill: #8700ff; stroke: black; stroke-width: 3px;" points="567.6537180435969,190.0 645.5960043841964,145.0 645.5960043841964,55.00000000000002 567.6537180435969,10.0 489.7114317029974,54.99999999999996 489.7114317029974,144.99999999999994"></polygon>
  <polygon style="fill: #87875f; stroke: black; stroke-width: 3px;" points="645.5960043841964,325.0 723.5382907247958,280.0 723.5382907247958,190.00000000000003 645.5960043841964,145.0 567.6537180435969,189.99999999999994 567.6537180435969,279.99999999999994"></polygon>
  <polygon style="fill: #8787ff; stroke: black; stroke-width: 3px;" points="567.6537180435969,460.0 645.5960043841964,415.0 645.5960043841964,325.0 567.6537180435969,280.0 489.7114317029974,324.99999999999994 489.7114317029974,414.99999999999994"></polygon>
  <polygon style="fill: #00ffff; stroke: black; stroke-width: 3px;" points="645.5960043841964,595.0 723.5382907247958,550.0 723.5382907247958,460.0 645.5960043841964,415.0 567.6537180435969,459.99999999999994 567.6537180435969,549.9999999999999"></polygon>
</svg>