<?xml version="1.0" encoding="UTF-8"?>
<!DOCTYPE svg PUBLIC "-//W3C//DTD SVG 1.1//EN" "http://www.w3.org/Graphics/SVG/1.1/DTD/svg11.dtd">
<svg xmlns="http://www.w3.org/2000/svg" version="1.1" width="1024" height="1024">
  <rect width="256" height="256" fill="#5f5faf" x="0" y="0" rx="128"/>
  <rect width="256" height="256" fill="#878787" x="256" y="0" rx="128"/>
  <rect width="256" height="256" fill="#00d7af" x="512" y="0" rx="128"/>
  <rect width="256" height="256" fill="#8700ff" x="768" y="0" rx="128"/>
  <rect width="256" height="256" fill="#d7d7d7" x="0" y="256" rx="128"/>
  <rect width="256" height="256" fill="#af875f" x="256" y="256" rx="128"/>
  <rect width="256" height="256" fill="#afffaf" x="512" y="256" rx="128"/>
  <rect width="256" height="256" fill="#87875f" x="768" y="256" rx="128"/>
  <rect width="256" height="256" fill="#d7afff" x="0" y="512" rx="128"/>
  <rect width="256" height="256" fill="#0087d7" x="256" y="512" rx="128"/>
  <rect width="256" height="256" fill="#d7afff" x="512" y="512" rx="128"/>
  <rect width="256" height="256" fill="#8787ff" x="768" y="512" rx="128"/>
  <rect width="256" height="256" fill="#afd75f" x="0" y="768" rx="128"/>
  <rect width="256" height="256" fill="#ff875f" x="256" y="768" rx="128"/>
  <rect width="256" height="256" fill="#a8a8a8" x="512" y="768" rx="128"/>
  <rect width="256" height="256" fill="#00ffff" x="768" y="768" rx="128"/>
</svg>
